<svg id="Capa_1" data-name="Capa 1" xmlns="http://www.w3.org/2000/svg" viewBox="0 0 512 455.53"><defs><style>.cls-1{fill:#fff;}</style></defs><path class="cls-1" d="M448.93,344.72A15,15,0,0,0,428.68,351,191,191,0,0,1,259,453.77c-105.42,0-191.19-85.66-191.4-191l12,12a15,15,0,0,0,21.21-21.21L63.24,215.94a15,15,0,0,0-21.22,0L4.39,253.57a15,15,0,0,0,21.22,21.21l12-12A221.43,221.43,0,0,0,455.26,365,15,15,0,0,0,448.93,344.72Z" transform="translate(0 -28.23)"/><path class="cls-1" d="M507.61,237.22a15,15,0,0,0-21.22,0l-12,12A221.43,221.43,0,0,0,56.74,147,15,15,0,0,0,83.32,161,191,191,0,0,1,253,58.23c105.41,0,191.19,85.66,191.4,191l-12-12a15,15,0,0,0-21.21,21.21l37.63,37.63a15,15,0,0,0,21.21,0l37.64-37.63a15,15,0,0,0,0-21.21Z" transform="translate(0 -28.23)"/><path class="cls-1" d="M276.51,238.77c-13.57-4.79-28.58-10.59-37-17.19-2.64-2.07-3.79-6.82-2.84-11.82.46-2.49,2.66-10.82,11.18-13.38,14-4.22,23.58,1.37,27,4a15,15,0,1,0,18-24,60,60,0,0,0-22.34-10v-6.11a15,15,0,1,0-30,0v7.09l-1.33.37c-16.43,4.95-28.7,19-32,36.56-3.05,16.2,2.24,31.9,13.82,41,9.53,7.48,22.72,13.81,45.51,21.87,15.17,5.36,14.84,17.64,14,22.67-1.72,10.2-10.3,21.22-25.08,21.32-14.5.1-19-.62-30.16-7.9a15,15,0,0,0-16.42,25.1c12,7.86,20.87,11.05,31.68,12.21v6.86a15,15,0,1,0,30,0V339a53.78,53.78,0,0,0,22.23-12.35,56.3,56.3,0,0,0,17.33-32c4.18-24.88-9.31-47.36-33.58-55.94Z" transform="translate(0 -28.23)"/></svg>